<?xml version="1.0" standalone="no"?>
<!DOCTYPE svg PUBLIC "-//W3C//DTD SVG 20010904//EN"
 "http://www.w3.org/TR/2001/REC-SVG-20010904/DTD/svg10.dtd">
<svg version="1.0" xmlns="http://www.w3.org/2000/svg"
 width="1280.000000pt" height="647.000000pt" viewBox="0 0 1280.000000 647.000000"
 preserveAspectRatio="xMidYMid meet">
<metadata>
Created by potrace 1.15, written by Peter Selinger 2001-2017
</metadata>
<g transform="translate(0.000000,647.000000) scale(0.100000,-0.100000)"
fill="#000000" stroke="none">
<path d="M4494 6460 c-6 -6 -102 -51 -213 -100 -224 -99 -298 -140 -359 -200
-140 -135 -114 -323 79 -581 45 -59 69 -100 69 -117 0 -33 -23 -120 -39 -150
-41 -76 -283 -296 -366 -333 -37 -16 -51 -16 -205 -3 -268 22 -300 29 -464 95
-196 79 -224 94 -372 196 -78 54 -146 110 -178 147 -89 103 -191 246 -256 361
-128 224 -141 245 -173 269 -98 75 -253 82 -462 21 -159 -46 -385 -166 -459
-244 -16 -16 -53 -42 -83 -57 -83 -40 -169 -128 -242 -246 -136 -217 -485
-959 -514 -1093 -23 -103 -36 -208 -52 -423 -20 -270 -38 -991 -33 -1337 2
-159 1 -310 -2 -335 -4 -25 -8 -35 -8 -22 -2 16 -8 22 -27 22 -30 0 -22 39
-86 -470 -35 -281 -48 -422 -44 -460 9 -79 44 -267 61 -325 41 -144 146 -240
314 -288 252 -72 2103 -369 2305 -370 57 0 153 15 335 51 461 92 795 130 995
112 242 -22 649 -93 830 -145 50 -15 191 -66 315 -115 349 -136 605 -206 920
-249 321 -45 844 -66 1620 -65 1087 0 1508 61 3020 436 714 177 1227 321 1395
393 276 118 530 307 607 451 64 119 96 482 54 619 -29 94 -57 142 -171 283
-186 233 -274 313 -323 298 -15 -5 -21 6 -36 67 -44 175 -149 325 -294 420
-112 73 -393 218 -457 235 -79 21 -347 21 -545 -2 -80 -8 -244 -27 -365 -41
-277 -31 -408 -33 -501 -4 -103 31 -243 108 -494 270 -124 80 -246 158 -272
173 -27 15 -48 34 -48 41 0 22 -50 55 -83 55 -39 0 -1048 538 -1087 580 -18
19 -38 30 -56 30 -16 0 -185 85 -429 215 -373 200 -403 218 -433 261 -32 45
-34 46 -80 42 -44 -3 -63 6 -297 131 -137 73 -256 138 -262 143 -7 6 -13 23
-13 37 0 33 -39 73 -72 74 -13 0 -41 -2 -63 -6 -37 -7 -53 0 -240 100 l-200
108 -3 40 c-2 22 -10 47 -18 56 -13 15 -11 17 20 23 72 14 90 98 34 155 -39
40 -140 100 -234 140 -229 97 -378 94 -516 -12 l-47 -36 -88 61 c-134 93 -259
196 -355 294 -106 108 -159 178 -201 266 -34 71 -37 74 -53 58z m12 -102 c82
-159 280 -358 535 -539 57 -40 105 -74 107 -75 2 -1 -18 -33 -44 -72 l-48 -70
-28 14 c-30 16 -36 7 -17 -28 16 -29 7 -31 -52 -14 -75 23 -110 20 -261 -18
-185 -46 -292 -102 -400 -208 -47 -46 -63 -55 -133 -73 -44 -12 -87 -25 -96
-29 -12 -5 -9 7 12 51 16 32 34 90 40 129 l11 71 -71 94 c-40 52 -93 136 -119
188 -99 199 -62 319 131 422 61 33 395 186 409 188 4 1 15 -14 24 -31z m-2615
-312 c31 -7 70 -23 88 -35 30 -22 43 -42 171 -266 64 -114 192 -291 274 -382
42 -46 82 -76 286 -214 30 -20 134 -70 230 -109 197 -82 240 -91 514 -114 157
-13 184 -13 214 0 19 8 36 13 38 12 6 -7 -294 -322 -374 -392 -306 -267 -626
-417 -927 -433 -193 -10 -352 30 -479 121 -74 52 -112 94 -208 223 -150 203
-172 260 -254 673 -59 295 -82 385 -120 467 -30 62 -135 165 -185 179 l-34 10
62 46 c126 93 338 185 493 213 97 17 142 18 211 1z m3674 -325 c39 -11 88 -27
110 -36 35 -15 37 -18 20 -28 -28 -15 -154 -47 -188 -47 -32 0 -157 64 -157
81 0 15 80 49 115 49 17 0 62 -9 100 -19z m-4383 -21 c114 -76 144 -152 228
-584 79 -400 113 -491 261 -689 171 -229 290 -313 497 -353 97 -18 290 -18
391 1 173 33 389 126 566 242 141 93 256 194 445 393 96 101 210 220 252 264
l78 81 0 -50 c0 -47 4 -54 43 -92 59 -57 115 -92 279 -177 530 -276 1777 -763
3598 -1406 847 -299 1235 -429 1246 -417 6 7 82 131 169 277 87 146 162 271
168 278 8 10 15 9 36 -5 349 -230 529 -330 655 -362 123 -32 216 -28 711 34
253 31 539 43 641 26 58 -10 105 -30 260 -112 276 -147 364 -220 435 -364 30
-62 89 -276 89 -325 0 -51 -44 -87 -189 -157 -164 -78 -192 -99 -222 -159 -19
-41 -22 -63 -22 -163 0 -74 8 -159 22 -233 11 -64 21 -119 21 -122 0 -10 -91
-52 -190 -89 -199 -74 -431 -126 -675 -152 -252 -26 -374 -50 -755 -150 -415
-109 -581 -136 -825 -136 -188 0 -237 6 -1270 151 -624 89 -930 129 -1123 147
-189 19 -117 21 -1302 -37 -801 -39 -1018 -45 -1620 -45 -579 0 -626 1 -805
23 -560 67 -1438 207 -2000 318 -449 89 -657 143 -757 196 -49 26 -63 40 -94
95 -20 35 -55 88 -79 118 -24 29 -53 72 -65 95 -47 91 -50 137 -50 750 0 873
28 1404 85 1623 31 118 356 810 477 1015 71 120 169 230 231 261 60 30 105 27
159 -9z m4155 -72 l38 -23 -54 -3 c-63 -4 -70 1 -46 28 22 24 16 25 62 -2z
m-357 -234 c22 -9 40 -19 40 -22 0 -3 -19 -30 -42 -60 -53 -69 -145 -146 -212
-179 l-52 -25 -92 56 c-51 31 -111 65 -134 77 l-42 21 25 19 c54 44 165 91
276 118 123 30 147 29 233 -5z m810 -109 c0 -47 -3 -85 -6 -85 -5 0 -145 80
-234 134 l-35 21 80 6 c44 3 106 6 138 7 l57 2 0 -85z m261 -26 c52 -22 110
-50 129 -62 l35 -22 -90 -16 c-50 -9 -109 -20 -132 -24 l-43 -7 0 86 c0 47 1
86 3 86 2 0 46 -18 98 -41z m-553 -87 c83 -48 152 -89 152 -92 0 -9 -234 -48
-242 -41 -4 3 -27 57 -52 119 -35 89 -41 112 -28 107 9 -3 86 -45 170 -93z
m-1313 15 c-23 -56 -20 -137 8 -178 54 -80 125 -104 302 -103 128 1 143 4 289
51 16 5 15 1 -7 -33 -13 -21 -27 -49 -31 -60 -9 -29 8 -70 38 -89 24 -16 35
-15 199 14 l173 31 90 -39 c93 -40 97 -44 134 -133 l19 -47 75 26 74 27 121
-49 121 -49 0 -88 c0 -81 2 -91 25 -113 13 -14 34 -25 47 -25 13 0 82 16 153
36 72 19 137 36 145 37 20 1 283 -103 291 -116 4 -5 10 -53 14 -106 9 -117 24
-158 62 -167 15 -4 84 -2 153 4 69 6 186 17 260 23 l136 12 204 -78 c113 -43
210 -82 216 -87 6 -4 48 -74 94 -156 45 -81 92 -157 103 -169 20 -23 22 -23
333 -23 l313 0 98 -172 c53 -95 110 -185 125 -200 48 -50 48 -50 388 183 54
37 59 38 200 52 80 8 147 13 149 11 6 -5 -259 -444 -267 -444 -19 0 -1142 392
-1777 620 -1937 696 -3057 1160 -3270 1356 -30 27 -35 38 -35 77 0 69 14 93
77 134 49 31 162 77 171 69 1 -2 -5 -19 -13 -39z m364 -44 l96 -57 -35 -9
c-49 -12 -256 -5 -271 10 -15 15 3 61 38 104 29 34 35 33 172 -48z m651 -38
c22 -54 39 -99 38 -101 -6 -5 -232 -44 -235 -40 -3 2 30 59 73 126 42 66 78
119 80 117 2 -2 22 -48 44 -102z m1181 -97 c0 -13 8 -99 18 -192 12 -115 14
-169 7 -172 -6 -2 -100 -28 -210 -58 -264 -73 -246 -82 -246 132 0 142 2 163
15 158 8 -3 21 -8 28 -11 11 -5 75 64 105 112 7 12 191 50 250 52 27 1 32 -3
33 -21z m357 -138 c78 -46 142 -86 142 -90 0 -6 -292 -89 -299 -84 -3 3 -30
236 -31 268 0 17 2 17 23 4 12 -8 86 -52 165 -98z m-948 -95 c0 -85 -3 -155
-7 -155 -5 0 -64 24 -132 53 l-125 52 -28 69 c-15 38 -28 72 -28 76 0 6 257
56 303 59 15 1 17 -13 17 -154z m-480 50 c0 -13 -4 -14 -22 -4 -34 17 -34 19
-5 19 18 0 27 -5 27 -15z m1795 -235 c109 -189 195 -344 192 -346 -1 -1 -103
-12 -227 -23 l-225 -22 -109 43 c-126 50 -120 41 -131 191 l-7 93 138 38 c77
21 175 48 219 61 44 13 89 23 99 22 12 -1 32 -23 51 -57z m438 -192 l192 -113
-70 -7 c-38 -3 -95 -9 -127 -13 l-56 -6 -52 93 c-29 51 -62 108 -72 126 -11
17 -17 32 -13 32 4 0 93 -51 198 -112z m-1102 21 c3 -30 5 -56 3 -58 -4 -5
-174 63 -174 70 0 7 140 47 155 44 6 -1 13 -26 16 -56z m243 -214 c20 -8 36
-17 36 -20 0 -3 -20 -5 -45 -5 -38 0 -45 3 -45 20 0 24 7 25 54 5z m1318 -82
c17 -20 238 -407 238 -417 0 -3 -19 -6 -42 -6 -29 0 -115 28 -270 87 l-228 86
-64 111 c-34 61 -61 113 -59 116 5 5 298 37 364 39 33 1 50 -4 61 -16z m-579
-94 c16 -28 27 -53 25 -55 -2 -2 -49 14 -104 35 -152 58 -145 54 -99 61 22 4
65 8 95 8 l55 2 28 -51z m1152 -147 c165 -90 304 -168 309 -173 6 -5 -1 -9
-18 -9 -18 0 -131 60 -319 171 -161 94 -299 178 -307 186 -20 21 -25 23 335
-175z m-75 -47 c102 -59 194 -114 205 -121 17 -12 -1 -14 -125 -14 l-145 0
-65 116 c-70 125 -77 139 -64 132 5 -3 92 -54 194 -113z m360 -40 c0 -3 -18 4
-40 15 -22 11 -40 23 -40 25 0 3 18 -4 40 -15 22 -11 40 -23 40 -25z m-985
-47 l110 -43 -84 -3 c-46 -2 -90 -1 -97 2 -15 6 -58 86 -47 86 4 0 57 -19 118
-42z m1151 -46 c-5 -4 -156 78 -156 85 0 2 36 -15 80 -38 44 -24 78 -44 76
-47z m-131 -187 c-16 -13 -44 -32 -61 -41 -31 -17 -33 -17 -133 21 -55 20
-101 39 -101 41 0 2 73 4 163 4 l162 -1 -30 -24z m376 -16 c62 -34 64 -36 50
-58 -11 -17 -31 -10 -101 34 -34 21 -39 29 -30 41 16 18 13 19 81 -17z m-552
-71 l34 -13 -56 -37 -56 -37 -38 67 c-21 37 -39 70 -41 74 -3 7 70 -18 157
-54z m411 32 c0 -5 -4 -10 -10 -10 -5 0 -10 5 -10 10 0 6 5 10 10 10 6 0 10
-4 10 -10z"/>
<path d="M4320 4511 c-76 -23 -125 -66 -280 -246 -62 -71 -131 -147 -154 -168
-60 -55 -193 -144 -346 -232 -128 -74 -563 -295 -717 -365 -74 -33 -91 -51
-69 -69 7 -6 337 -88 732 -182 1843 -437 1724 -410 2049 -449 572 -67 1235
-102 1920 -103 659 0 937 30 960 104 17 53 -52 82 -404 169 -152 38 -307 80
-346 93 -38 13 -214 91 -390 172 -1754 807 -2850 1289 -2918 1284 -7 0 -23 -4
-37 -8z m122 -75 c274 -103 1174 -503 2623 -1166 292 -133 555 -251 585 -262
30 -10 172 -48 315 -84 314 -78 394 -103 372 -115 -9 -5 -59 -16 -113 -24
-386 -58 -1566 -38 -2389 40 -474 45 -594 65 -1050 174 -137 32 -605 143
-1040 246 -434 103 -810 192 -835 199 l-45 12 219 107 c240 117 451 230 591
315 179 110 252 173 408 352 152 173 218 230 268 230 16 0 57 -11 91 -24z"/>
<path d="M11278 2959 c-9 -5 -50 -12 -90 -15 -40 -3 -244 -20 -453 -39 -282
-24 -382 -30 -387 -22 -5 7 -8 4 -8 -9 0 -52 -116 -112 -335 -176 -55 -15
-284 -71 -509 -123 -456 -106 -670 -165 -805 -223 -117 -51 -148 -71 -130 -83
77 -51 1505 276 2309 528 165 51 386 136 415 158 23 16 18 19 -7 4z"/>
</g>
</svg>
